<?xml version="1.0" encoding="utf-8"?>
<!-- Generator: Adobe Illustrator 18.0.0, SVG Export Plug-In . SVG Version: 6.00 Build 0)  -->
<!DOCTYPE svg PUBLIC "-//W3C//DTD SVG 1.1//EN" "http://www.w3.org/Graphics/SVG/1.1/DTD/svg11.dtd">
<svg version="1.1" id="icons" xmlns="http://www.w3.org/2000/svg" xmlns:xlink="http://www.w3.org/1999/xlink" x="0px" y="0px"
	 viewBox="0 0 800 800" enable-background="new 0 0 800 800" xml:space="preserve">
<g>
	<path fill="#AFAFAF" d="M399,2C179.8,2,2,179.7,2,399s177.8,397,397,397c219.3,0,397-177.7,397-397S618.3,2,399,2z M236.6,254.6
		c29.9,0,54.1,24.2,54.1,54.1c0,29.9-24.2,54.1-54.1,54.1c-29.9,0-54.1-24.2-54.1-54.1C182.5,278.9,206.7,254.6,236.6,254.6z
		 M605,568.9c-3.4,3.4-84.2,82.8-205.9,82.8s-202.6-79.4-206-82.8c-14.1-14.1-14.1-36.9,0-51c14.1-14.1,36.9-14.1,51-0.1
		c1.6,1.6,64.6,61.7,155,61.7c92.2,0,154.3-61,154.9-61.6c14.1-14.1,36.9-14.1,51,0C619.1,531.9,619.1,554.8,605,568.9z
		 M561.4,362.9c-29.9,0-54.1-24.2-54.1-54.1c0-29.9,24.2-54.1,54.1-54.1c29.9,0,54.1,24.2,54.1,54.1
		C615.5,338.7,591.3,362.9,561.4,362.9z"/>
</g>
</svg>
