<?xml version="1.0" encoding="utf-8"?>
<!-- Generator: Adobe Illustrator 18.0.0, SVG Export Plug-In . SVG Version: 6.00 Build 0)  -->
<!DOCTYPE svg PUBLIC "-//W3C//DTD SVG 1.1//EN" "http://www.w3.org/Graphics/SVG/1.1/DTD/svg11.dtd">
<svg version="1.1" id="icons" xmlns="http://www.w3.org/2000/svg" xmlns:xlink="http://www.w3.org/1999/xlink" x="0px" y="0px"
	 viewBox="0 0 800 800" enable-background="new 0 0 800 800" xml:space="preserve">
<g>
	<path fill="#AFAFAF" d="M400,5C181.9,5,5,181.8,5,400s176.9,395,395,395c218.2,0,395-176.8,395-395S618.2,5,400,5z M561.6,256.4
		c29.8,0,53.9,24.1,53.9,53.9c0,29.7-24.1,53.9-53.9,53.9c-29.7,0-53.9-24.1-53.9-53.9C507.7,280.5,531.9,256.4,561.6,256.4z
		 M238.4,256.4c29.8,0,53.9,24.1,53.9,53.9c0,29.7-24.1,53.9-53.9,53.9c-29.7,0-53.9-24.1-53.9-53.9
		C184.5,280.5,208.7,256.4,238.4,256.4z M605,640.8c-14,14-36.7,14-50.7,0.1c-1.6-1.6-64.3-61.4-154.3-61.4
		c-91.7,0-153.5,60.7-154.2,61.3c-14,14-36.8,14-50.8,0c-14-14-14-36.7,0-50.8c3.4-3.4,83.7-82.3,204.9-82.3
		c121.2,0,201.6,79,204.9,82.3C619,604.1,619,626.8,605,640.8z"/>
</g>
</svg>
